<svg width="248" height="248" viewBox="0 0 248 248" fill="none" xmlns="http://www.w3.org/2000/svg">
<rect width="248" height="248" fill="#18181b"/>
<path d="M100 172V68L196 52V156" stroke="white" stroke-width="20" stroke-linecap="round" stroke-linejoin="round"/>
<path d="M76 196C89.2548 196 100 185.255 100 172C100 158.745 89.2548 148 76 148C62.7452 148 52 158.745 52 172C52 185.255 62.7452 196 76 196Z" stroke="white" stroke-width="20" stroke-linecap="round" stroke-linejoin="round"/>
<path d="M172 180C185.255 180 196 169.255 196 156C196 142.745 185.255 132 172 132C158.745 132 148 142.745 148 156C148 169.255 158.745 180 172 180Z" stroke="white" stroke-width="20" stroke-linecap="round" stroke-linejoin="round"/>
</svg>
